<?xml version="1.0" standalone="no"?>
<!DOCTYPE svg PUBLIC "-//W3C//DTD SVG 20010904//EN"
 "http://www.w3.org/TR/2001/REC-SVG-20010904/DTD/svg10.dtd">
<svg version="1.0" xmlns="http://www.w3.org/2000/svg"
 width="100.000000pt" height="108.000000pt" viewBox="0 0 100.000000 108.000000"
 preserveAspectRatio="xMidYMid meet">

<g transform="translate(0.000000,108.000000) scale(0.100000,-0.100000)"
fill="#000000" stroke="none">
<path d="M261 932 c-124 -64 -226 -122 -229 -129 -2 -6 11 -19 27 -28 31 -15
31 -17 31 -94 0 -70 -2 -80 -25 -101 -33 -31 -33 -72 0 -98 33 -26 32 -53 -5
-177 -16 -55 -30 -106 -30 -112 0 -9 22 -13 75 -13 53 0 75 4 75 13 0 6 -14
57 -30 111 -37 123 -38 152 -5 178 33 26 33 67 0 98 -22 21 -25 32 -25 92 l0
68 60 -30 c60 -30 60 -31 60 -74 0 -24 6 -48 13 -54 60 -49 410 -54 485 -6 17
11 22 24 22 59 0 42 2 46 40 65 21 11 42 20 45 20 10 0 5 -491 -5 -511 -12
-21 -50 -25 -68 -7 -8 8 -12 53 -12 135 0 159 -3 163 -125 163 -101 0 -125
-15 -125 -79 0 -36 -2 -39 -34 -45 -19 -4 -46 -18 -60 -33 -25 -25 -26 -30
-26 -139 0 -106 1 -114 25 -143 46 -54 163 -55 217 -1 27 28 28 30 28 142 0
112 -1 115 -28 141 -15 15 -42 30 -60 33 -28 6 -32 11 -32 38 0 18 5 37 12 44
16 16 150 16 166 0 8 -8 12 -53 12 -135 0 -120 1 -125 26 -150 20 -20 31 -24
57 -19 66 13 67 18 67 317 l0 268 45 27 c25 14 44 31 42 38 -4 13 -446 246
-467 245 -8 0 -116 -52 -239 -117z m442 -150 c26 -11 27 -15 27 -76 l0 -65
-32 12 c-39 13 -298 16 -375 4 l-53 -9 0 60 c0 34 4 64 10 67 40 25 365 30
423 7z m-76 -153 c43 -6 82 -13 87 -16 36 -23 -168 -44 -307 -32 -99 8 -147
22 -117 33 60 23 226 31 337 15z m-89 -366 c-2 -42 -8 -68 -15 -71 -10 -3 -13
15 -13 67 0 57 3 71 15 71 13 0 15 -12 13 -67z"/>
</g>
</svg>
